<?xml version="1.0" encoding="UTF-8"?>
<svg viewBox="0 0 761.80902 527.32373" xmlns="http://www.w3.org/2000/svg" xmlns:xlink="http://www.w3.org/1999/xlink">
 <defs>
  <filter id="p">
   <feGaussianBlur stdDeviation="1.09129"/>
  </filter>
  <filter id="l">
   <feGaussianBlur stdDeviation=".81509"/>
  </filter>
  <filter id="k">
   <feGaussianBlur stdDeviation="2.59314"/>
  </filter>
  <filter id="i">
   <feGaussianBlur in="SourceGraphic" result="result1" stdDeviation="1.3"/>
   <feTurbulence baseFrequency=".034" numOctaves="4" result="result0"/>
   <feDisplacementMap in="result1" in2="result0" result="result2" scale="19.6" xChannelSelector="R" yChannelSelector="G"/>
   <feColorMatrix result="result3" values="2 0 0 0 0 0 2 0 0 0 0 0 2 0 0 0 0 0 0.7 0"/>
   <feGaussianBlur in="SourceGraphic" result="result4" stdDeviation="1.1"/>
   <feComposite in="result4" in2="result3"/>
  </filter>
  <filter id="d">
   <feGaussianBlur stdDeviation="1.58457"/>
  </filter>
  <filter id="c">
   <feGaussianBlur stdDeviation="1.32589"/>
  </filter>
  <filter id="o" x="-.13021" y="-.11127" width="1.2604" height="1.2226">
   <feGaussianBlur stdDeviation=".43389"/>
  </filter>
  <filter id="n" x="-.18884" y="-.2927" width="1.3777" height="1.5854">
   <feGaussianBlur stdDeviation="1.17387"/>
  </filter>
  <filter id="m" x="-.01206" y="-2.508" width="1.0241" height="6.016">
   <feGaussianBlur stdDeviation="1.06686"/>
  </filter>
  <filter id="q" x="-.2" y="-.2" width="1.4" height="1.4">
   <feTurbulence baseFrequency=".05" numOctaves="5" result="result91" type="fractalNoise"/>
   <feDisplacementMap in="SourceGraphic" in2="result91" result="result5" scale="25" xChannelSelector="R"/>
   <feComposite in="SourceGraphic" in2="result5" operator="atop"/>
  </filter>
  <filter id="j" x="-.2898" y="-.22292" width="1.5796" height="1.4458">
   <feGaussianBlur stdDeviation=".82184"/>
  </filter>
  <linearGradient id="b">
   <stop stop-color="#800000" offset="0"/>
   <stop stop-color="#800000" stop-opacity="0" offset="1"/>
  </linearGradient>
  <linearGradient id="g" x1="219.81" x2="205.92" y1="532.54" y2="548.87" gradientTransform="matrix(-.95257 .09554 -.18179 -.94517 495.84 1044.8)" gradientUnits="userSpaceOnUse">
   <stop stop-color="#fff" offset="0"/>
   <stop stop-color="#fff" stop-opacity="0" offset="1"/>
  </linearGradient>
  <linearGradient id="h" x1="211.3" x2="229.4" y1="62.32" y2="59.947" gradientUnits="userSpaceOnUse" xlink:href="#b"/>
  <radialGradient id="e" cx="211.86" cy="64.579" r="8.9034" gradientTransform="matrix(-3.0113 3.0002 -2.3054 -2.3139 999.92 -427.28)" gradientUnits="userSpaceOnUse">
   <stop stop-color="#a00" offset="0"/>
   <stop stop-color="#f2f2f2" offset="1"/>
  </radialGradient>
  <radialGradient id="a" cx="-147.69" cy="313.01" r="28.704" gradientTransform="matrix(1.1619 .23712 -.11461 .56161 59.783 174.01)" gradientUnits="userSpaceOnUse">
   <stop stop-color="#ccc" offset="0"/>
   <stop stop-color="#ccc" stop-opacity="0" offset="1"/>
  </radialGradient>
  <radialGradient id="f" cx="168.46" cy="544.77" r="11.445" gradientTransform="matrix(-.88016 .95864 -.91588 -.8409 848.63 850.74)" gradientUnits="userSpaceOnUse" xlink:href="#b"/>
 </defs>
 <g transform="translate(45.699 -545.46)">
  <g transform="translate(-58.715 -25.026)">
   <path transform="matrix(.998 0 0 .99535 .68705 3.6739)" d="m113.56 587.95c9.2889 37.509 1.4724 76.579-3.5758 114.2-2.9254 23.954-8.0719 49.067-1.4242 72.831 1.6611 4.109 3.1027 9.7789 6.9375 11.781h222.88c-10.813-18.018-7.9414-40.222-6.8585-60.309 3.7048-46.239 13.978-93.134 5.421-139.41-3.1022-3.695-11.723-0.5535-16.969-1.5938h-207.06l0.65625 2.5z" fill="#ccc" filter="url(#p)"/>
   <path d="m119.5 587.46 212.24 4.5427c13.466 68.982-10.432 150.04 9.6254 187.22l-220.9 6.0334c-25.063-37.183 16.544-128.82-0.96253-197.8z" fill="#808080"/>
   <path transform="translate(0 527.95)" d="m115.5 59.505h219.46c13.466 65.773-20.057 161.87 0 197.32h-219.46c-25.063-35.453 17.506-131.55 0-197.32z" fill="#fea"/>
   <path transform="matrix(1.1054 0 0 1.4336 -23.682 493.64)" d="m236.78 75.387c0 2.658-3.3398 4.8127-7.4596 4.8127s-7.4596-2.1547-7.4596-4.8127 3.3398-4.8127 7.4596-4.8127 7.4596 2.1547 7.4596 4.8127z" fill="#999" filter="url(#n)" opacity=".44"/>
   <g transform="translate(41.389 36.336)">
    <path transform="translate(0 527.95)" d="m195.17 28.071-7.9972 9.3584" fill="#1a1a1a" stroke="#1a1a1a" stroke-linecap="round" stroke-width="1.8"/>
    <path transform="matrix(.70732 0 0 .72727 56.84 151.72)" d="m192.27 559.43-7.9972 9.3584" fill="#808080" filter="url(#o)" stroke="#808080"/>
    <path transform="translate(-8.1815 486.56)" d="m220.42 60.227c0 4.6514-3.9862 8.4222-8.9034 8.4222s-8.9034-3.7707-8.9034-8.4222 3.9862-8.4222 8.9034-8.4222 8.9034 3.7707 8.9034 8.4222z" fill="#800000"/>
    <path transform="matrix(.75939 .731 -1.0898 1.1321 104.5 328.8)" d="m219.97 60.068c0.38414 4.6443-3.7362 7.6596-8.6534 7.6596s-8.6392-2.8494-8.7013-7.5006c-0.11523-8.635 3.3732-6.9373 8.2904-6.9373s8.286-2.6309 9.0643 6.7784z" fill="url(#h)"/>
    <path transform="translate(-8.1815 486.56)" d="m220.42 60.227c0 4.6514-3.9862 8.4222-8.9034 8.4222s-8.9034-3.7707-8.9034-8.4222 3.9862-8.4222 8.9034-8.4222 8.9034 3.7707 8.9034 8.4222z" fill="#a00"/>
    <path transform="translate(-8.1815 486.56)" d="m220.42 60.227c0 4.6514-3.9862 8.4222-8.9034 8.4222s-8.9034-3.7707-8.9034-8.4222 3.9862-8.4222 8.9034-8.4222 8.9034 3.7707 8.9034 8.4222z" fill="#800000"/>
    <path d="m206.2 557.48c-4.7697 5.5387-11.185 5.9404-14.919 2.3459s-3.4552-9.5411 1.5666-14.852c9.323-9.8602 10.122-5.3881 13.856-1.7936s9.1594 3.0786-0.50387 14.3z" fill="url(#f)"/>
    <path transform="translate(-8.1815 486.56)" d="m220.42 60.227c0 4.6514-3.9862 8.4222-8.9034 8.4222s-8.9034-3.7707-8.9034-8.4222 3.9862-8.4222 8.9034-8.4222 8.9034 3.7707 8.9034 8.4222z" fill="url(#e)"/>
    <path d="m204.5 555.32c1.67-0.16749 3.1537-0.78333 4.3159-1.6973 0.0483-0.64344 0.0228-1.3005-0.10701-1.9763-0.84561-4.3964-5.3337-7.5938-10.018-7.124-1.6823 0.16872-3.1441 0.80171-4.3102 1.7268-0.0453 0.63469-0.0268 1.2808 0.10132 1.9468 0.84559 4.3964 5.3337 7.5938 10.018 7.124z" fill="url(#g)"/>
   </g>
  </g>
  <g transform="matrix(1.3372 0 0 1.3372 -212 -199.4)">
   <path d="m415.81 570.13c79.339-10.686 149.96-6.3102 219.46 0v100.1c-71.284-4.8588-143.66-6.8649-219.46 0z" fill="#b3b3b3" filter="url(#l)"/>
   <path d="m419.6 668.5 212.35-1.0209" fill="none" filter="url(#m)" stroke="#000"/>
   <path d="m415.81 570.13c79.339-10.686 149.96-6.3102 219.46 0v100.1c-71.284-4.8588-143.66-6.8649-219.46 0z" fill="#fea"/>
   <path d="m398.34 592.93 44.95-34.077-0.28139 3.9885 2.8488 0.10843 1.1844 0.18198-1.7621 4.0127 3.2028 0.0761-0.79848 1.6794 1.9614 0.0944-44.95 34.077 1.1564-2.3111-2.3117 0.46755 0.78211-2.3321-2.1 0.53463 0.56082-1.9249-1.7235-0.23603 1.1608-2.0899-2.4292 0.0658 0.4559-1.9535z" fill="#999" opacity=".44"/>
   <path d="m638.45 608.32-34.077-44.95 3.9885 0.28139 0.10843-2.8488 0.18198-1.1844 4.0127 1.7621 0.0761-3.2028 1.6794 0.79848 0.0944-1.9614 34.077 44.95-2.3111-1.1564 0.46755 2.3117-2.3321-0.78211 0.53463 2.1-1.9249-0.56082-0.23603 1.7235-2.0899-1.1608 0.0658 2.4292-1.9535-0.4559z" fill="#999" opacity=".44"/>
  </g>
  <g transform="matrix(.96759 -.25253 .25253 .96759 -99.926 164.97)">
   <path transform="matrix(.97018 0 0 1 20.446 0)" d="m430.83 719.54h170.15v175.6h-170.15z" fill="#666" filter="url(#k)" opacity=".8804"/>
   <path d="m434.84 719.2v4.0625c2.124 0.19856 3.7812 1.7839 3.7812 3.75s-1.6572 3.5791-3.7812 3.7812v1.125c2.124 0.20211 3.7812 1.8152 3.7812 3.7812s-1.6572 3.5791-3.7812 3.7812v1.375c2.124 0.20211 3.7812 1.8152 3.7812 3.7812s-1.6572 3.5791-3.7812 3.7812v1.2812c2.124 0.20211 3.7812 1.8152 3.7812 3.7812s-1.6572 3.5791-3.7812 3.7812v1.375c2.124 0.20211 3.7812 1.8152 3.7812 3.7812s-1.6572 3.5791-3.7812 3.7812v1.5625c2.124 0.19856 3.7812 1.7839 3.7812 3.75s-1.6572 3.5791-3.7812 3.7812v1.7188c2.124 0.20211 3.7812 1.8152 3.7812 3.7812s-1.6572 3.5791-3.7812 3.7812v1.625c2.124 0.20211 3.7812 1.8152 3.7812 3.7812s-1.6572 3.5791-3.7812 3.7812v1.4688c2.124 0.20211 3.7812 1.8152 3.7812 3.7812s-1.6572 3.5791-3.7812 3.7812v1.375c2.124 0.20211 3.7812 1.8152 3.7812 3.7812s-1.6572 3.5514-3.7812 3.75v1.5625c2.124 0.20211 3.7812 1.8152 3.7812 3.7812s-1.6572 3.5791-3.7812 3.7812v1.8125c2.124 0.19856 3.7812 1.7839 3.7812 3.75s-1.6572 3.5791-3.7812 3.7812v1.6562c2.124 0.19856 3.7812 1.7839 3.7812 3.75s-1.6572 3.5791-3.7812 3.7812v1.8125c2.124 0.20211 3.7812 1.8152 3.7812 3.7812s-1.6572 3.5791-3.7812 3.7812v1.875c2.124 0.20211 3.7812 1.8152 3.7812 3.7812s-1.6572 3.5791-3.7812 3.7812v1.625c2.124 0.20211 3.7812 1.8152 3.7812 3.7812s-1.6572 3.5791-3.7812 3.7812v1.625c2.124 0.20211 3.7812 1.8152 3.7812 3.7812s-1.6572 3.5791-3.7812 3.7812v1.4688c2.124 0.20211 3.7812 1.8152 3.7812 3.7812s-1.6572 3.5514-3.7812 3.75v1.6562c2.124 0.20211 3.7812 1.8152 3.7812 3.7812s-1.6572 3.5514-3.7812 3.75v0.0625h170.12v-175.59h-170.12z" fill="#f2f2f2"/>
   <path d="m447.17 724.99 0.67346 166.06" fill="none" opacity=".33" stroke="#000" stroke-width="1.0072"/>
   <path transform="translate(0 527.95)" d="m439.68 206.56 150.42-2.0418" fill="#008080" opacity=".33" stroke="#008080"/>
   <path d="m439.68 745.4 150.42-2.0418" fill="#008080" opacity=".33" stroke="#008080"/>
   <path d="m439.68 754.93 150.42-2.0418" fill="#008080" opacity=".33" stroke="#008080"/>
   <path d="m439.68 764.12 150.42-2.0418" fill="#008080" opacity=".33" stroke="#008080"/>
   <path d="m439.68 773.31 150.42-2.0418" fill="#008080" opacity=".33" stroke="#008080"/>
   <path d="m439.68 783.52 150.42-2.0418" fill="#008080" opacity=".33" stroke="#008080"/>
   <path d="m439.68 793.73 150.42-2.0418" fill="#008080" opacity=".33" stroke="#008080"/>
   <path d="m439.68 802.92 150.42-2.0418" fill="#008080" opacity=".33" stroke="#008080"/>
   <path d="m439.68 812.45 150.42-2.0418" fill="#008080" opacity=".33" stroke="#008080"/>
   <path d="m439.68 821.97 150.42-2.0418" fill="#008080" opacity=".33" stroke="#008080"/>
   <path d="m439.68 831.16 150.42-2.0418" fill="#008080" opacity=".33" stroke="#008080"/>
   <path d="m440.02 840.35 150.42-2.0418" fill="#008080" opacity=".33" stroke="#008080"/>
   <path d="m439.68 849.54 150.42-2.0418" fill="#008080" opacity=".33" stroke="#008080"/>
   <path d="m438.66 870.64 150.42-2.0418" fill="#008080" opacity=".33" stroke="#008080"/>
   <path d="m439 860.43 150.42-2.0418" fill="#008080" opacity=".33" stroke="#008080"/>
   <path d="m438.66 879.49 150.42-2.0418" fill="#008080" opacity=".33" stroke="#008080"/>
   <path d="m437.98 889.01 150.42-2.0418" fill="#008080" opacity=".33" stroke="#008080"/>
  </g>
  <path transform="matrix(.96855 .24881 -.24881 .96855 221.72 -53.052)" d="m55.15825,847.34229h297.79805c.16277,0 .2938.13103.2938.29379v173.63112c0,.1628-.13103.2938-.2938.2938h-297.79805c-.16276,0-.2938-.131-.2938-.2938v-173.63112c0-.16276.13103-.29379.2938-.29379z" fill="#e9ddaf" filter="url(#q)"/>
  <g transform="matrix(.5521 -.05506 .05723 .53123 123.66 323.41)">
   <path transform="translate(0 527.95)" d="m-157.22 318.18-10.89 21.78c0.0687 0.49631-0.12249 1.2525 0.35339 1.3416 0.46138 0.20942 0.79938 0.6656 1.6884 0.0196l16.335-19.057z" fill="#999" stroke="#999"/>
   <path transform="matrix(.91401 .40569 -.40569 .91401 115.82 615.83)" d="m-123.19 317.16c0 7.7058-11.732 13.953-26.204 13.953s-26.204-6.2468-26.204-13.953 11.732-13.953 26.204-13.953 26.204 6.2468 26.204 13.953z" fill="#666" stroke="#666" stroke-linecap="round" stroke-linejoin="round" stroke-width="5"/>
   <path transform="matrix(.92588 .41095 -.35621 .80255 102.56 649.66)" d="m-123.19 317.16c0 7.7058-11.732 13.953-26.204 13.953s-26.204-6.2468-26.204-13.953 11.732-13.953 26.204-13.953 26.204 6.2468 26.204 13.953z" fill="url(#a)"/>
   <path d="m-166.41 868.51 6.8061-8.848" fill="none" filter="url(#j)" stroke="#000"/>
   <path transform="matrix(.92588 .41095 -.35621 .80255 103.52 648.21)" d="m-123.19 317.16c0 7.7058-11.732 13.953-26.204 13.953s-26.204-6.2468-26.204-13.953 11.732-13.953 26.204-13.953 26.204 6.2468 26.204 13.953z" fill="url(#a)"/>
   <path transform="matrix(.88541 .43642 -.34064 .85227 94.341 637.21)" d="m-123.19 317.16c0 7.7058-11.732 13.953-26.204 13.953s-26.204-6.2468-26.204-13.953 11.732-13.953 26.204-13.953 26.204 6.2468 26.204 13.953z" fill="url(#a)"/>
   <path transform="matrix(.73044 .36003 -.28102 .7031 44.283 671.42)" d="m-123.19 317.16c0 7.7058-11.732 13.953-26.204 13.953s-26.204-6.2468-26.204-13.953 11.732-13.953 26.204-13.953 26.204 6.2468 26.204 13.953z" fill="url(#a)"/>
   <path transform="matrix(.73044 .36003 -.28102 .7031 51.262 670.94)" d="m-123.19 317.16c0 7.7058-11.732 13.953-26.204 13.953s-26.204-6.2468-26.204-13.953 11.732-13.953 26.204-13.953 26.204 6.2468 26.204 13.953z" fill="url(#a)"/>
   <path transform="matrix(.73044 .36003 -.28102 .7031 54.631 677.68)" d="m-123.19 317.16c0 7.7058-11.732 13.953-26.204 13.953s-26.204-6.2468-26.204-13.953 11.732-13.953 26.204-13.953 26.204 6.2468 26.204 13.953z" fill="url(#a)"/>
  </g>
  <g transform="matrix(.26608 .05454 -.20879 .19933 325.64 643.24)" fill="#808080" filter="url(#i)" font-family="Arial" font-size="105.29" font-weight="bold" letter-spacing="0" opacity=".55" stroke="#4d4d4d" word-spacing="0">
   <path d="m95.679 959.01v-75.367h22.775l13.675 51.41 13.521-51.41h22.826v75.367h-14.138v-59.327l-14.96 59.327h-14.652l-14.909-59.327v59.327z"/>
   <path d="m215.21 941.63 14.395 2.4163c-1.8508 5.2781-4.7726 9.2966-8.7654 12.056s-8.9882 4.1385-14.986 4.1385c-9.4937 0-16.52-3.1017-21.078-9.3052-3.5987-4.9696-5.398-11.242-5.398-18.816 0-9.0481 2.3648-16.134 7.0946-21.258s10.71-7.6857 17.942-7.6858c8.1227 5e-5 14.532 2.6819 19.227 8.0456s6.9403 13.581 6.7347 24.651h-36.193c0.1028 4.2842 1.2681 7.6172 3.4959 9.9992s5.0039 3.573 8.3284 3.573c2.262 1e-5 4.1642-0.6169 5.7065-1.8508s2.7076-3.2217 3.4959-5.9635zm0.82256-14.6c-0.10286-4.1813-1.1825-7.3601-3.2388-9.5365s-4.5584-3.2645-7.5058-3.2645c-3.1532 4e-5 -5.7579 1.1482-7.8143 3.4445s-3.0675 5.4152-3.0332 9.3566z"/>
   <path d="m241.12 904.41h13.315v7.4544c4.764-5.7921 10.436-8.6882 17.017-8.6883 3.4958 5e-5 6.529 0.71979 9.0995 2.1592s4.6782 3.6159 6.3234 6.529c2.3991-2.9132 4.9867-5.0895 7.7629-6.529s5.7407-2.1592 8.8939-2.1592c4.0099 5e-5 7.4029 0.81404 10.179 2.442s4.8496 4.0186 6.2206 7.1717c0.99384 2.3306 1.4908 6.1007 1.4909 11.31v34.907h-14.446v-31.206c-8e-5 -5.4151-0.49704-8.911-1.4909-10.488-1.3367-2.0564-3.3931-3.0846-6.1692-3.0846-2.0222 4e-5 -3.9244 0.61696-5.7065 1.8508s-3.0675 3.0418-3.8557 5.4237-1.1825 6.1435-1.1824 11.284v26.219h-14.446v-29.921c-4e-5 -5.3123-0.25709-8.7396-0.77115-10.282s-1.311-2.6904-2.3906-3.4445-2.5448-1.131-4.3956-1.131c-2.2278 4e-5 -4.2328 0.59982-6.015 1.7993s-3.0589 2.9304-3.83 5.1924-1.1568 6.015-1.1567 11.259v26.527h-14.446z"/>
   <path d="m332.42 930.94c0-4.7982 1.1824-9.4422 3.5473-13.932s5.715-7.9171 10.051-10.282 9.1766-3.5472 14.523-3.5473c8.2598 5e-5 15.029 2.6819 20.307 8.0456s7.9171 12.141 7.9171 20.333c-6e-5 8.2599-2.6648 15.106-7.9942 20.538s-12.039 8.1485-20.127 8.1485c-5.0039 0-9.7765-1.131-14.318-3.393s-7.9942-5.578-10.359-9.9478-3.5473-9.6907-3.5473-15.963zm14.806 0.77115c-2e-5 5.4152 1.2852 9.5622 3.8557 12.441s5.7407 4.3184 9.5108 4.3184 6.9317-1.4395 9.4851-4.3184 3.83-7.0603 3.83-12.544c-4e-5 -5.3466-1.2767-9.4594-3.83-12.338s-5.7151-4.3184-9.4851-4.3184-6.9404 1.4395-9.5108 4.3184-3.8558 7.026-3.8557 12.441z"/>
  </g>
  <g transform="translate(-100.73 -21.78)">
   <path d="m615.95 962.85 0.96253-62.083-143.9 0.48127-0.96253 119.84 86.628-2.4063z" fill="none" filter="url(#c)" stroke="#000"/>
   <path d="m607.36 925.79 4.3314 36.576-0.48434 26.209 8.1846 24.324-24.545 1e-4 -36.576-0.4813-74.596 0.9626 21.176-68.821z" fill="none" filter="url(#d)" opacity=".55" stroke="#000" stroke-width="15"/>
   <path d="m471.64 899.32h149.19c-0.77154 47.233-0.65427 56.22 0 71.709 1.0507 11.101 4.9005 25.698 9.1441 31.764-23.843 9.2376-49.53 15.802-72.671 16.363l-85.666 2.4063z" fill="#fea"/>
   <path transform="translate(0 527.95)" d="m524.29 410.66c0.17213-1.5671-0.34731-3.0265-0.92023-4.4549-0.68869-1.4871-1.7119-2.7515-2.8484-3.9154-0.98177-0.92213-2.0396-1.7868-3.142-2.5634-0.93213-0.69651-2.0212-1.1244-3.0268-1.7029-1.1911-0.59601-2.4652-1.0188-3.7271-1.4419-1.1228-0.37768-2.2989-0.46293-3.4729-0.50889-1.0503-0.0267-2.1011-0.0151-3.1516-0.01l-0.48999 2e-3c-0.4877 2e-3 -0.4861-0.0606-0.91856 0.18383-0.16859 0.0953-0.64576 0.42653-0.47679 0.33193 5.0999-2.8552 7.1877-4.3174 4.8173-2.6852-0.93116 0.76727-1.8101 1.6311-2.5499 2.5872-0.59233 0.77388-0.91237 1.6485-1.0804 2.5971-0.14666 1.1438-0.13757 2.3017-0.136 3.4529 5e-3 1.2377 3e-3 2.4754 6e-3 3.7131 0.0309 1.3274 0.28661 2.611 0.69634 3.8679 0.31015 1.2816 0.79766 2.487 1.5664 3.5578 0.90301 1.2727 2.0668 2.3377 3.18 3.4234 1.2239 1.2704 2.4805 2.5061 3.7559 3.725 1.1176 1.1139 2.3808 2.0649 3.6676 2.972 1.4994 0.99948 2.9682 2.0314 4.4077 3.1162 1.6851 1.1482 3.2054 2.4872 4.6218 3.948 1.308 1.3925 2.5722 2.8366 3.763 4.3316 0.43559 0.46265 0.70462 1.0511 1.124 1.5254 0.0605 0.0684 0.11946 0.15255 0.20656 0.18007 0.0376 0.0119 0.11081-0.10919 0.0759-0.0908-2.0625 1.0827-4.111 2.192-6.1664 3.288 0.44522-0.85855 0.28296-2.3425 0.28921-3.3125-0.0871-2.0158 0.40771-3.9733 0.8969-5.9102 0.51499-2.0326 1.3538-3.9451 2.2127-5.8484 0.84071-1.7477 1.5432-3.5529 2.275-5.3475 0.79897-2.2959 1.9286-4.454 3.0684-6.5945 1.503-2.6542 3.1604-5.2135 4.8591-7.7451 1.404-2.0377 2.663-4.1661 3.4348-6.5236 0.47368-1.5472 0.54026-3.1606 0.57704-4.7648 0.0242-1.5492 0.0332-3.0952-0.12504-4.6375-0.2276-1.3805-0.63013-2.7602-1.3399-3.9716-0.73757-1.1329-1.919-1.8786-3.0396-2.5978-0.96531-0.58496-2.0747-0.66855-3.1738-0.72672-0.0563-0.22354-1.7634 0.56777-1.6202 0.48516 9.8127-5.6652 6.2652-3.8117 4.3346-2.2373-1.1197 0.98795-2.0658 2.1571-2.9932 3.3228-0.70813 0.8317-1.3974 1.6545-1.9521 2.5979-0.53505 0.95733-0.99418 1.9538-1.4774 2.9376-0.57291 1.1184-1.1096 2.252-1.613 3.403-0.45108 1.0013-0.76447 2.0591-1.0679 3.1128-0.22688 0.86177-0.36201 1.7404-0.23525 2.6258l0.10054 0.27565-6.2244 3.463-0.16058-0.40837c-0.17432-0.9773-0.10548-1.9404 0.1251-2.9081 0.27899-1.0957 0.63471-2.1786 1.0507-3.2288 0.53116-1.144 0.99406-2.3191 1.5955-3.4304 0.50618-0.96719 0.90223-1.9884 1.4415-2.9388 0.49889-1.0218 1.1383-1.9278 1.9542-2.7247 0.89959-1.2125 1.899-2.369 2.9449-3.4549 2.6347-2.4432 5.8859-4.9524 9.5512-5.005 1.1903 0.12164 2.3589 0.33188 3.3587 1.0391 1.1759 0.82274 2.4218 1.635 3.1954 2.875 0.76019 1.3049 1.1842 2.7668 1.455 4.249 0.16511 1.566 0.21918 3.1296 0.18129 4.705-0.024 1.673-0.0955 3.3644-0.56014 4.9824-0.24303 0.77963-0.40004 1.361-0.73883 2.1144-0.73484 1.6342-1.7541 3.1404-2.7244 4.6379-1.7036 2.4997-3.3615 5.029-4.8502 7.6648-1.136 2.0992-2.2543 4.2258-3.0192 6.4928-0.73744 1.798-1.3781 3.6335-2.2699 5.3632-0.80345 1.9015-1.7581 3.7389-2.2799 5.753-0.46837 1.8751-1.0133 3.7656-0.89972 5.719 0.0116 1.2058 0.0259 2.4117 0.0312 3.6173-7.2781 4.1044-5.1636 5.1962-7.8341 1.5668-1.1332-1.4999-2.3596-2.938-3.6518-4.3025-1.42-1.4169-2.9421-2.7082-4.6021-3.8401-1.4363-1.0834-2.9317-2.0712-4.4168-3.0846-1.3143-0.92952-2.604-1.9058-3.7338-3.058-1.2588-1.2337-2.488-2.4956-3.736-3.7387-1.1514-1.1137-2.3666-2.1855-3.2951-3.5014-0.80476-1.1326-1.3468-2.3917-1.6736-3.7455-0.42712-1.3271-0.73469-2.6584-0.80599-4.0582-2e-3 -1.2368-0.0119-2.4736-0.0135-3.7105 1e-3 -1.1769-0.0171-2.355 0.0594-3.5302 0.12272-1.0271 0.34653-2.0298 0.95532-2.8909 0.65047-1.0854 1.6322-1.9272 2.514-2.8204 2.493-2.0811 0.80734-0.72857 7.2199-4.3302 0.18604-0.10449 0.39411-0.16914 0.60171-0.21841 0.4916-0.11668 1.011-0.0186 1.5079-0.0535 1.0524-6.6e-4 2.1056-3e-3 3.1568 0.0566 1.2146 0.0863 2.4191 0.24348 3.5642 0.6844 1.2869 0.45952 2.6038 0.87133 3.803 1.5373 1.0468 0.5567 2.1523 1.0193 3.0796 1.7751 1.1021 0.83757 2.1981 1.6996 3.1672 2.6905 1.1774 1.2407 2.2435 2.5889 2.9535 4.1582 0.62482 1.4794 1.1848 2.9966 1.1822 4.6273l-6.3514 3.2362z" fill="#ac9393" opacity=".22"/>
   <path d="m521.89 937.65c0.17213-1.5671-0.34731-3.0265-0.92023-4.4549-0.68869-1.4871-1.7119-2.7515-2.8484-3.9154-0.98177-0.92213-2.0396-1.7868-3.142-2.5634-0.93213-0.69651-2.0212-1.1244-3.0268-1.7029-1.1911-0.59601-2.4652-1.0188-3.7271-1.4419-1.1228-0.37768-2.2989-0.46293-3.4729-0.50889-1.0503-0.0267-2.1011-0.0151-3.1516-0.01l-0.48999 2e-3c-0.4877 2e-3 -0.4861-0.0606-0.91856 0.18383-0.16859 0.0953-0.64576 0.42653-0.47679 0.33193 5.0999-2.8552 7.1877-4.3174 4.8173-2.6852-0.93116 0.76727-1.8101 1.6311-2.5499 2.5872-0.59233 0.77388-0.91237 1.6485-1.0804 2.5971-0.14666 1.1438-0.13757 2.3017-0.136 3.4529 5e-3 1.2377 3e-3 2.4754 6e-3 3.7131 0.0309 1.3274 0.28661 2.611 0.69634 3.8679 0.31015 1.2816 0.79766 2.487 1.5664 3.5578 0.90301 1.2727 2.0668 2.3377 3.18 3.4234 1.2239 1.2704 2.4805 2.5061 3.7559 3.725 1.1176 1.1139 2.3808 2.0649 3.6676 2.972 1.4994 0.99948 2.9682 2.0314 4.4077 3.1162 1.6851 1.1482 3.2054 2.4872 4.6218 3.948 1.308 1.3925 2.5722 2.8366 3.763 4.3316 0.43559 0.46265 0.70462 1.0511 1.124 1.5254 0.0605 0.0684 0.11946 0.15255 0.20656 0.18007 0.0376 0.0119 0.11081-0.10919 0.0759-0.0908-2.0625 1.0827-4.111 2.192-6.1664 3.288 0.44522-0.85855 0.28296-2.3425 0.28921-3.3125-0.0871-2.0158 0.40771-3.9733 0.8969-5.9102 0.51499-2.0326 1.3538-3.9451 2.2127-5.8484 0.84071-1.7477 1.5432-3.5529 2.275-5.3475 0.79897-2.2959 1.9286-4.454 3.0684-6.5945 1.503-2.6542 3.1604-5.2135 4.8591-7.7451 1.404-2.0377 2.663-4.1661 3.4348-6.5236 0.47368-1.5472 0.54026-3.1606 0.57704-4.7648 0.0242-1.5492 0.0332-3.0952-0.12504-4.6375-0.2276-1.3805-0.63013-2.7602-1.3399-3.9716-0.73757-1.1329-1.919-1.8786-3.0396-2.5978-0.96531-0.58496-2.0747-0.66855-3.1738-0.72672-0.0563-0.22354-1.7634 0.56777-1.6202 0.48516 9.8127-5.6652 6.2652-3.8117 4.3346-2.2373-1.1197 0.98795-2.0658 2.1571-2.9932 3.3228-0.70813 0.8317-1.3974 1.6545-1.9521 2.5979-0.53505 0.95733-0.99418 1.9538-1.4774 2.9376-0.57291 1.1184-1.1096 2.252-1.613 3.403-0.45108 1.0013-0.76447 2.0591-1.0679 3.1128-0.22688 0.86177-0.36201 1.7404-0.23525 2.6258l0.10054 0.27565-6.2244 3.463-0.16058-0.40837c-0.17432-0.9773-0.10548-1.9404 0.1251-2.9081 0.27899-1.0957 0.63471-2.1786 1.0507-3.2288 0.53116-1.144 0.99406-2.3191 1.5955-3.4304 0.50618-0.96719 0.90223-1.9884 1.4415-2.9388 0.49889-1.0218 1.1383-1.9278 1.9542-2.7247 0.89959-1.2125 1.899-2.369 2.9449-3.4549 2.6347-2.4432 5.8859-4.9524 9.5512-5.005 1.1903 0.12164 2.3589 0.33188 3.3587 1.0391 1.1759 0.82274 2.4218 1.635 3.1954 2.875 0.76019 1.3049 1.1842 2.7668 1.455 4.249 0.16511 1.566 0.21918 3.1296 0.18129 4.705-0.024 1.673-0.0955 3.3644-0.56014 4.9824-0.24303 0.77963-0.40004 1.361-0.73883 2.1144-0.73484 1.6342-1.7541 3.1404-2.7244 4.6379-1.7036 2.4997-3.3615 5.029-4.8502 7.6648-1.136 2.0992-2.2543 4.2258-3.0192 6.4928-0.73744 1.798-1.3781 3.6335-2.2699 5.3632-0.80345 1.9015-1.7581 3.7389-2.2799 5.753-0.46837 1.8751-1.0133 3.7656-0.89972 5.719 0.0116 1.2058 0.0259 2.4117 0.0312 3.6173-7.2781 4.1044-5.1636 5.1962-7.8341 1.5668-1.1332-1.4999-2.3596-2.938-3.6518-4.3025-1.42-1.4169-2.9421-2.7082-4.6021-3.8401-1.4363-1.0834-2.9317-2.0712-4.4168-3.0846-1.3143-0.92952-2.604-1.9058-3.7338-3.058-1.2588-1.2337-2.488-2.4956-3.736-3.7387-1.1514-1.1137-2.3666-2.1855-3.2951-3.5014-0.80476-1.1326-1.3468-2.3917-1.6736-3.7455-0.42712-1.3271-0.73469-2.6584-0.80599-4.0582-2e-3 -1.2368-0.0119-2.4736-0.0135-3.7105 1e-3 -1.1769-0.0171-2.355 0.0594-3.5302 0.12272-1.0271 0.34653-2.0298 0.95532-2.8909 0.65047-1.0854 1.6322-1.9272 2.514-2.8204 2.493-2.0811 0.80734-0.72857 7.2199-4.3302 0.18604-0.10449 0.39411-0.16914 0.60171-0.21841 0.4916-0.11668 1.011-0.0186 1.5079-0.0535 1.0524-6.6e-4 2.1056-3e-3 3.1568 0.0566 1.2146 0.0863 2.4191 0.24348 3.5642 0.6844 1.2869 0.45952 2.6038 0.87133 3.803 1.5373 1.0468 0.5567 2.1523 1.0193 3.0796 1.7751 1.1021 0.83757 2.1981 1.6996 3.1672 2.6905 1.1774 1.2407 2.2435 2.5889 2.9535 4.1582 0.62482 1.4794 1.1848 2.9966 1.1822 4.6273l-6.3514 3.2362z" fill="#ac9393" opacity=".22"/>
  </g>
  <path d="m475.74 780.44 0.96253-62.083-143.9 0.48127-0.96253 119.84 86.628-2.4063z" fill="none" filter="url(#c)" stroke="#000"/>
  <path d="m467.15 743.38 4.3314 36.576-0.48434 26.209 8.1846 24.324-24.545 1e-4 -36.576-0.4813-74.596 0.9626 21.176-68.821z" fill="none" filter="url(#d)" opacity=".55" stroke="#000" stroke-width="15"/>
  <path d="m331.44 716.91h149.19c-0.77154 47.233-0.65427 56.22 0 71.709 1.0507 11.101 4.9005 25.698 9.1441 31.764-23.843 9.2376-49.53 15.802-72.671 16.363l-85.666 2.4063z" fill="#fea"/>
 </g>
</svg>
